<?xml version="1.0" standalone="no"?>
<!DOCTYPE svg PUBLIC "-//W3C//DTD SVG 1.1//EN" "https://www.w3.org/Graphics/SVG/1.1/DTD/svg11.dtd">

<svg width="660" height="370" version="1.1" xmlns="http://www.w3.org/2000/svg">
	<ellipse stroke="black" stroke-width="1" fill="none" cx="118.5" cy="195.5" rx="30" ry="30"/>
	<text x="104.5" y="201.5" font-family="Times New Roman" font-size="20">Off</text>
	<ellipse stroke="black" stroke-width="1" fill="none" cx="118.5" cy="195.5" rx="24" ry="24"/>
	<ellipse stroke="black" stroke-width="1" fill="none" cx="273.5" cy="195.5" rx="30" ry="30"/>
	<text x="261.5" y="201.5" font-family="Times New Roman" font-size="20">On</text>
	<ellipse stroke="black" stroke-width="1" fill="none" cx="444.5" cy="195.5" rx="30" ry="30"/>
	<text x="418" y="201.5" font-family="Times New Roman" font-size="15">Prepare</text>
	<ellipse stroke="black" stroke-width="1" fill="none" cx="608.5" cy="195.5" rx="30" ry="30"/>
	<text x="591.5" y="201.5" font-family="Times New Roman" font-size="20">Run</text>
	<ellipse stroke="black" stroke-width="1" fill="none" cx="305.5" cy="50.5" rx="30" ry="30"/>
	<text x="289.5" y="56.5" font-family="Times New Roman" font-size="20">End</text>
	<polygon stroke="black" stroke-width="1" points="59.5,195.5 88.5,195.5"/>
	<text x="16.5" y="201.5" font-family="Times New Roman" font-size="20">Start</text>
	<polygon fill="black" stroke-width="1" points="88.5,195.5 80.5,190.5 80.5,200.5"/>
	<polygon stroke="black" stroke-width="1" points="148.5,195.5 243.5,195.5"/>
	<polygon fill="black" stroke-width="1" points="243.5,195.5 235.5,190.5 235.5,200.5"/>
	<text x="168.5" y="216.5" font-family="Times New Roman" font-size="20">Toggle</text>
	<polygon stroke="black" stroke-width="1" points="303.5,195.5 414.5,195.5"/>
	<polygon fill="black" stroke-width="1" points="414.5,195.5 406.5,190.5 406.5,200.5"/>
	<text x="323.5" y="216.5" font-family="Times New Roman" font-size="20">Initialize</text>
	<polygon stroke="black" stroke-width="1" points="474.5,195.5 578.5,195.5"/>
	<polygon fill="black" stroke-width="1" points="578.5,195.5 570.5,190.5 570.5,200.5"/>
	<text x="499.5" y="216.5" font-family="Times New Roman" font-size="20">Spawn</text>
	<polygon stroke="black" stroke-width="1" points="581.439,182.55 332.561,63.45"/>
	<polygon fill="black" stroke-width="1" points="332.561,63.45 337.619,71.413 341.936,62.393"/>
	<text x="461.5" y="113.5" font-family="Times New Roman" font-size="20">Toggle</text>
	<path stroke="black" stroke-width="1" fill="none" d="M 419.199,179.396 A 361.963,361.963 0 0 1 320.521,76.459"/>
	<polygon fill="black" stroke-width="1" points="320.521,76.459 320.591,85.893 329.031,80.53"/>
	<text x="304.5" y="153.5" font-family="Times New Roman" font-size="20">Toggle</text>
	<polygon stroke="black" stroke-width="1" points="281.792,68.883 142.208,177.117"/>
	<polygon fill="black" stroke-width="1" points="142.208,177.117 151.594,176.166 145.466,168.263"/>
	<text x="160.5" y="114.5" font-family="Times New Roman" font-size="20">Clean</text>
	<path stroke="black" stroke-width="1" fill="none" d="M 334.248,41.997 A 234.619,234.619 0 0 1 597.087,167.778"/>
	<polygon fill="black" stroke-width="1" points="334.248,41.997 343.158,45.098 340.94,35.347"/>
	<text x="491.5" y="49.5" font-family="Times New Roman" font-size="20">Players Dead</text>
	<path stroke="black" stroke-width="1" fill="none" d="M 596.3,222.735 A 84.495,84.495 0 0 1 456.7,222.735"/>
	<polygon fill="black" stroke-width="1" points="456.7,222.735 457.078,232.161 465.339,226.526"/>
	<text x="488.5" y="280.5" font-family="Times New Roman" font-size="20">Boss Kill</text>
	<path stroke="black" stroke-width="1" fill="none" d="M 616.765,224.197 A 90.869,90.869 0 1 1 436.235,224.197"/>
	<polygon fill="black" stroke-width="1" points="436.235,224.197 430.347,231.569 440.28,232.72"/>
	<text x="467.5" y="346.5" font-family="Times New Roman" font-size="20">Boss Despawn</text>
</svg>
